<svg width="32" height="19" viewBox="0 0 32 19" fill="none" xmlns="http://www.w3.org/2000/svg">
<path d="M10.4037 0.719999C12.4997 0.719999 13.9957 1.248 14.8917 2.304C15.5477 3.104 15.8757 4.104 15.8757 5.304C15.8757 5.736 15.8357 6.192 15.7557 6.672L14.8197 12.024C14.4997 13.832 13.7157 15.28 12.4677 16.368C11.2197 17.456 9.60369 18 7.61969 18H0.635688L3.68369 0.719999H10.4037ZM8.89169 4.464H7.33169L5.62769 14.256H7.90769C8.65969 14.256 9.24369 14.056 9.65969 13.656C10.0917 13.24 10.3877 12.568 10.5477 11.64L11.2437 7.704C11.3077 7.352 11.3397 7.032 11.3397 6.744C11.3397 5.224 10.5237 4.464 8.89169 4.464ZM22.7144 18.336C20.4424 18.336 18.8744 17.808 18.0104 16.752C17.4184 16.016 17.1224 15.008 17.1224 13.728C17.1224 13.136 17.1864 12.488 17.3144 11.784L18.1544 6.984C18.9064 2.696 21.5304 0.551999 26.0264 0.551999C27.8824 0.551999 29.2904 0.951999 30.2504 1.752C31.2104 2.536 31.6904 3.616 31.6904 4.992C31.6904 5.552 31.6104 6.12 31.4504 6.696C31.3064 7.272 31.1624 7.704 31.0184 7.992L30.7784 8.424H26.5304C26.9464 7.848 27.1544 7.184 27.1544 6.432C27.1544 4.992 26.5544 4.272 25.3544 4.272C23.7384 4.272 22.7704 5.208 22.4504 7.08L21.6344 11.688C21.5544 12.12 21.5144 12.544 21.5144 12.96C21.5144 14.064 22.1624 14.616 23.4584 14.616C24.7704 14.616 25.6104 13.96 25.9784 12.648H24.0104L24.4904 9.984H30.8504L30.4664 12.048L30.3464 12.744C29.6744 16.472 27.1304 18.336 22.7144 18.336Z" fill="black"/>
</svg>
