<svg width="48" height="48" viewBox="0 0 48 48" fill="none" xmlns="http://www.w3.org/2000/svg">
<rect width="48" height="48" rx="8" fill="white"/>
<path d="M18.4037 14.22C20.4997 14.22 21.9957 14.748 22.8917 15.804C23.5477 16.604 23.8757 17.604 23.8757 18.804C23.8757 19.236 23.8357 19.692 23.7557 20.172L22.8197 25.524C22.4997 27.332 21.7157 28.78 20.4677 29.868C19.2197 30.956 17.6037 31.5 15.6197 31.5H8.63569L11.6837 14.22H18.4037ZM16.8917 17.964H15.3317L13.6277 27.756H15.9077C16.6597 27.756 17.2437 27.556 17.6597 27.156C18.0917 26.74 18.3877 26.068 18.5477 25.14L19.2437 21.204C19.3077 20.852 19.3397 20.532 19.3397 20.244C19.3397 18.724 18.5237 17.964 16.8917 17.964ZM30.7144 31.836C28.4424 31.836 26.8744 31.308 26.0104 30.252C25.4184 29.516 25.1224 28.508 25.1224 27.228C25.1224 26.636 25.1864 25.988 25.3144 25.284L26.1544 20.484C26.9064 16.196 29.5304 14.052 34.0264 14.052C35.8824 14.052 37.2904 14.452 38.2504 15.252C39.2104 16.036 39.6904 17.116 39.6904 18.492C39.6904 19.052 39.6104 19.62 39.4504 20.196C39.3064 20.772 39.1624 21.204 39.0184 21.492L38.7784 21.924H34.5304C34.9464 21.348 35.1544 20.684 35.1544 19.932C35.1544 18.492 34.5544 17.772 33.3544 17.772C31.7384 17.772 30.7704 18.708 30.4504 20.58L29.6344 25.188C29.5544 25.62 29.5144 26.044 29.5144 26.46C29.5144 27.564 30.1624 28.116 31.4584 28.116C32.7704 28.116 33.6104 27.46 33.9784 26.148H32.0104L32.4904 23.484H38.8504L38.4664 25.548L38.3464 26.244C37.6744 29.972 35.1304 31.836 30.7144 31.836Z" fill="black"/>
</svg>
