<svg width="75" height="75" viewBox="0 0 75 75" fill="none" xmlns="http://www.w3.org/2000/svg">
<mask id="mask0_26_36" style="mask-type:alpha" maskUnits="userSpaceOnUse" x="0" y="0" width="75" height="75">
<rect width="75" height="75" fill="#D9D9D9"/>
</mask>
<g mask="url(#mask0_26_36)">
<path d="M50 68.75V61.7188C47.0833 60.7812 44.6354 59.1146 42.6563 56.7187C40.6771 54.3229 39.5313 51.5625 39.2188 48.4375H45.4688C45.8854 50.6771 46.9401 52.5391 48.6328 54.0234C50.3255 55.5078 52.3438 56.25 54.6875 56.25H64.0625C65.3646 56.25 66.4714 56.7057 67.3828 57.6172C68.2943 58.5286 68.75 59.6354 68.75 60.9375V68.75H50ZM59.375 53.125C57.6562 53.125 56.1849 52.513 54.9609 51.2891C53.737 50.0651 53.125 48.5938 53.125 46.875C53.125 45.1562 53.737 43.6849 54.9609 42.4609C56.1849 41.237 57.6562 40.625 59.375 40.625C61.0938 40.625 62.5651 41.237 63.7891 42.4609C65.013 43.6849 65.625 45.1562 65.625 46.875C65.625 48.5938 65.013 50.0651 63.7891 51.2891C62.5651 52.513 61.0938 53.125 59.375 53.125ZM28.125 43.75C28.125 35.9375 30.8594 29.2969 36.3281 23.8281C41.7969 18.3594 48.4375 15.625 56.25 15.625V21.875C50.1562 21.875 44.987 23.9974 40.7422 28.2422C36.4974 32.487 34.375 37.6562 34.375 43.75H28.125ZM40.625 43.75C40.625 39.4271 42.1484 35.7422 45.1953 32.6953C48.2422 29.6484 51.9271 28.125 56.25 28.125V34.375C53.6458 34.375 51.4323 35.2865 49.6094 37.1094C47.7865 38.9323 46.875 41.1458 46.875 43.75H40.625ZM6.25 34.375V26.5625C6.25 25.2604 6.70573 24.1536 7.61719 23.2422C8.52865 22.3307 9.63542 21.875 10.9375 21.875H20.3125C22.6562 21.875 24.6745 21.1328 26.3672 19.6484C28.0599 18.1641 29.1146 16.3021 29.5313 14.0625H35.7812C35.4687 17.1875 34.3229 19.9479 32.3438 22.3438C30.3646 24.7396 27.9167 26.4062 25 27.3438V34.375H6.25ZM15.625 18.75C13.9062 18.75 12.4349 18.138 11.2109 16.9141C9.98698 15.6901 9.375 14.2188 9.375 12.5C9.375 10.7812 9.98698 9.3099 11.2109 8.08594C12.4349 6.86198 13.9062 6.25 15.625 6.25C17.3438 6.25 18.8151 6.86198 20.0391 8.08594C21.263 9.3099 21.875 10.7812 21.875 12.5C21.875 14.2188 21.263 15.6901 20.0391 16.9141C18.8151 18.138 17.3438 18.75 15.625 18.75Z" fill="#1C1B1F"/>
</g>
</svg>
